<?xml version="1.0" encoding="utf-8"?>
<!-- Generator: Adobe Illustrator 23.1.0, SVG Export Plug-In . SVG Version: 6.00 Build 0)  -->
<svg version="1.1" id="Слой_1" xmlns="http://www.w3.org/2000/svg" xmlns:xlink="http://www.w3.org/1999/xlink" x="0px" y="0px"
	 viewBox="0 0 1920 1080" style="enable-background:new 0 0 1920 1080;" xml:space="preserve">
<style type="text/css">
	.st0{fill:#7DBA28;}
	.st1{fill:#575756;}
</style>
<g>
	<g>
		<path class="st0" d="M686.98,441.6L533.96,291.25c-37.07-36.44-85.5-56.04-134.09-56.5c-48.57,0.46-97.02,20.07-134.09,56.5
			l-153,150.35c-75.09,73.77-75.09,193.4,0,267.17l19.33,19.01c34.42,33.81,213.53,111.01,229.6,117.48l0.01-291.95
			c0-8.94-6.23-16.99-14.69-20.29l-95.43-37.29c-7.97,6.67-18.21,10.71-29.42,10.71c-25.3,0-45.81-20.52-45.81-45.82
			c0-25.3,20.51-45.82,45.81-45.82c23.41,0,42.67,17.56,45.44,40.21l92.88,36.29c12.66,4.94,25.99,7.48,39.37,7.66
			c13.38-0.18,26.73-2.73,39.38-7.66L532.12,455c2.77-22.64,22.04-40.21,45.44-40.21c25.3,0,45.8,20.52,45.8,45.82
			c0,25.3-20.51,45.82-45.8,45.82c-11.2,0-21.45-4.04-29.42-10.71l-95.41,37.29c-8.46,3.3-14.69,11.34-14.69,20.29v291.95
			c16.07-6.47,195.18-83.67,229.61-117.48l19.33-19.01C762.06,635,762.06,515.37,686.98,441.6 M399.88,434.64
			c-30.54,0-55.29-24.75-55.29-55.29s24.75-55.29,55.29-55.29c30.54,0,55.29,24.75,55.29,55.29S430.42,434.64,399.88,434.64"/>
	</g>
	<g>
		<g>
			<g>
				<g>
					<rect x="890.72" y="354.64" class="st1" width="31.88" height="198.96"/>
				</g>
			</g>
			<g>
				<g>
					<polygon class="st1" points="1037.43,553.6 1005.55,553.6 1005.55,382.69 947.1,382.98 947.1,354.65 1096.17,354.65 
						1096.17,382.98 1037.43,382.69 					"/>
				</g>
			</g>
			<g>
				<g>
					<path class="st1" d="M1327.01,417.82c0,9.06-1.62,17.47-4.88,25.24c-3.24,7.78-7.87,14.57-13.88,20.38
						c-6,5.81-13.27,10.37-21.83,13.72c-8.56,3.34-18.15,5.02-28.79,5.02h-34.83v71.43h-31.88V354.65h68.48
						c10.64,0,20.13,1.64,28.49,4.88c8.37,3.24,15.44,7.72,21.24,13.44c5.8,5.7,10.24,12.39,13.29,20.07
						C1325.48,400.7,1327.01,408.97,1327.01,417.82 M1295.13,417.82c0-10.62-3.06-19.08-9.15-25.38
						c-6.11-6.29-14.95-9.44-26.58-9.44h-36.6v70.84h34.83c11.8,0,21.01-3.18,27.61-9.59
						C1291.83,437.84,1295.13,429.05,1295.13,417.82"/>
				</g>
			</g>
			<g>
				<g>
					<path class="st1" d="M1501.75,553.6h-33.06l-17.41-48.99h-77.04l-17.13,48.99h-33.05l72.62-198.95h32.46L1501.75,553.6z
						 M1426.78,434.94l-13.58-47.23h-0.59l-13.57,47.23l-14.76,42.21h57.27L1426.78,434.94z"/>
				</g>
			</g>
			<g>
				<g>
					<path class="st1" d="M1668.83,415.46c0,13.78-3.95,25.74-11.8,35.88c-7.88,10.14-18.42,17.25-31.59,21.39l46.92,80.87h-34.24
						l-44.27-76.14h-34.55v76.14h-31.87V354.66h72.91c10.81,0,20.51,1.56,29.07,4.71c8.56,3.15,15.75,7.48,21.55,12.99
						c5.8,5.51,10.22,11.95,13.29,19.33C1667.31,399.08,1668.83,407.01,1668.83,415.46 M1636.95,415.46
						c0-9.84-3.05-17.71-9.15-23.62c-6.1-5.89-15.25-8.85-27.45-8.85h-41.05v66.12h40.16c11.8,0,20.99-3.05,27.59-9.15
						C1633.65,433.86,1636.95,425.69,1636.95,415.46"/>
				</g>
			</g>
			<g>
				<g>
					<path class="st1" d="M1734.94,553.6h-31.88V354.65h31.88V553.6z M1775.38,447.93l86.2,105.67h-37.79l-77.63-95.93v-18.3
						l76.16-84.73h36.6L1775.38,447.93z"/>
				</g>
			</g>
		</g>
		<g>
			<g>
				<path class="st1" d="M913.53,650.05c-10.96,0-17.93,2.56-17.93,12.11c0,6.19,3.44,9.72,15.64,10.61
					c14.75,1.15,21.29,6.45,21.29,17.85c0,13.08-9.98,18.03-25.01,18.03c-5.48,0-12.73-0.97-17.5-2.47l1.77-5.66
					c3.8,1.41,10.78,2.3,15.64,2.3c10.87,0,18.39-2.56,18.39-12.11c0-6.1-3.36-11.05-15.56-11.93
					c-14.75-1.06-21.47-5.13-21.47-16.44c0-13.17,9.64-18.03,24.66-18.03c5.39,0,12.19,0.97,16.96,2.39l-1.77,5.74
					C925.82,651.03,918.57,650.05,913.53,650.05z"/>
			</g>
			<g>
				<path class="st1" d="M966.66,707.41h-6.45v-56.3h-21.39v-5.3h49.15v5.3h-21.3V707.41z"/>
			</g>
			<g>
				<path class="st1" d="M1026.23,688.41h-30.05c-2.21,6.28-4.33,12.55-6.37,19h-6.27c7.06-20.59,14.66-41.01,23.24-61.6h10.87
					c6.98,20.77,15.73,44.54,23.16,61.6h-7.16C1031.27,701.49,1028.71,695.13,1026.23,688.41z M1010.67,650.76
					c-4.42,10.96-8.66,21.66-12.54,32.35h26.16c-3.8-10.43-7.6-21.57-11.05-32.35H1010.67z"/>
			</g>
			<g>
				<path class="st1" d="M1077.86,645.81c13.69,0,17.5,8.4,17.5,17.85c0,8.66-4.24,16.26-17.76,16.26
					c4.42,1.5,12.19,11.93,21.57,27.48h-7.96c-9.81-17.24-17.93-26.69-22.53-26.69h-11.93v26.69h-6.37v-61.6H1077.86z
					 M1056.74,651.12v24.04h20.68c7.25,0,10.87-4.51,10.87-11.58c0-8.04-3.7-12.46-10.43-12.46H1056.74z"/>
			</g>
			<g>
				<path class="st1" d="M1129.49,707.41h-6.46v-56.3h-21.38v-5.3h49.14v5.3h-21.29V707.41z"/>
			</g>
			<g>
				<path class="st1" d="M1189.07,695.92c0,4.33,0.97,6.36,4.24,9.63l-4.41,3.71c-3.71-3.54-5.57-6.45-5.57-12.99V643.6h5.74V695.92
					z"/>
			</g>
			<g>
				<path class="st1" d="M1201.79,684.88c0-18.21,6.46-23.34,20.24-23.34c13.88,0,20.32,5.13,20.32,23.34
					c0,18.29-6.36,23.77-20.32,23.77C1208.16,708.65,1201.79,703.17,1201.79,684.88z M1208.16,685.06
					c0,14.49,3.45,18.29,13.88,18.29c10.52,0,13.97-3.8,13.97-18.29c0-15.2-3.45-18.21-13.97-18.21
					C1211.61,666.85,1208.16,669.85,1208.16,685.06z"/>
			</g>
			<g>
				<path class="st1" d="M1287.8,706.18c-3.36,1.5-8.93,2.47-12.73,2.47c-13.88,0-21.57-5.48-21.57-23.77
					c0-18.21,7.78-23.34,21.57-23.34c3.71,0,9.55,0.97,12.73,2.21l-1.86,5.39c-3.18-1.5-7.16-2.12-10.87-2.12
					c-10.43,0-15.2,2.83-15.2,18.03c0,14.49,4.76,18.11,15.2,18.11c3.8,0,7.69-0.88,10.87-2.3L1287.8,706.18z"/>
			</g>
			<g>
				<path class="st1" d="M1330.32,705.12c-4.85,2.21-12.37,3.53-18.02,3.53c-12.82,0-18.12-3.45-18.12-15.02
					c0-12.73,7.69-14.76,17.68-14.76c4.68,0,8.13,0.44,12.73,1.42c0-10.96-2.83-13.26-13.17-13.26c-4.24,0-9.27,0.62-12.82,2.12
					l-1.68-5.39c3.44-0.97,8.84-2.21,14.84-2.21c13,0,18.56,3.8,18.56,17.32V705.12z M1324.57,685.14c-3.27-0.8-7.6-1.15-12.02-1.15
					c-8.92,0-11.93,0.97-11.93,9.19c0,8.93,2.56,10.25,11.93,10.25c4.33,0,8.58-0.8,12.02-2.03V685.14z"/>
			</g>
			<g>
				<path class="st1" d="M1349.51,695.92c0,4.33,0.97,6.36,4.24,9.63l-4.42,3.71c-3.71-3.54-5.57-6.45-5.57-12.99V643.6h5.75V695.92
					z"/>
			</g>
			<g>
				<path class="st1" d="M1437.54,693.54c2.83,3.98,5.57,8.57,8.84,13.88h-7.16c-1.77-3.27-3.8-6.36-5.66-9.19
					c-7.6,7.34-12.46,10.43-24.13,10.43c-14.31,0-21.92-3.89-21.92-17.58c0-8.4,4.16-15.91,15.91-16.44
					c-11.05-0.97-11.58-7.51-11.58-14.85c0-9.9,5.74-15.47,19.36-15.47c13.6,0,19.44,5.13,19.44,15.03
					c0,7.33-2.03,14.14-13.08,15.11c4.42,0.53,8.75,3.36,16.62,14.49c3.27-4.95,5.21-10.78,5.21-16.97h5.92
					C1445.32,679.49,1442.4,687.17,1437.54,693.54z M1430.47,693.63c-7.07-10.43-12.91-16.62-20.15-16.62c-10.78,0-16,3.53-16,13.26
					c0,9.37,3.44,12.99,15.11,12.99C1419.78,703.26,1423.84,700.87,1430.47,693.63z M1424.2,660.22c0-7.43-3.53-10.52-12.99-10.52
					s-12.82,3.01-12.82,10.43c0,8.22,3.36,11.67,12.11,11.67C1419.33,671.8,1424.2,668.44,1424.2,660.22z"/>
			</g>
			<g>
				<path class="st1" d="M1520.46,679.49h-16.09v-5.13h22.45v32.26c-4.77,1.5-13.35,2.03-18.83,2.03c-19.08,0-28.2-7.51-28.2-32.61
					c0-25.19,9.11-31.73,28.2-31.73c5.48,0,12.46,0.97,17.24,2.39l-2.03,5.57c-3.71-1.41-10.34-2.3-15.12-2.3
					c-15.55,0-21.38,3.45-21.38,26.07c0,22.53,5.83,26.95,21.38,26.95c4.77,0,9.72-0.79,12.37-1.5V679.49z"/>
			</g>
			<g>
				<path class="st1" d="M1539.65,676.3c0-25.1,8.84-31.99,27.92-31.99c19.18,0,28.02,6.89,28.02,31.99
					c0,25.46-8.75,32.35-28.02,32.35C1548.4,708.65,1539.65,701.76,1539.65,676.3z M1546.54,676.48c0,21.47,5.39,26.6,21.03,26.6
					c15.82,0,21.3-5.13,21.3-26.6c0-22.63-5.48-26.78-21.3-26.78C1551.93,649.7,1546.54,653.86,1546.54,676.48z"/>
			</g>
			<g>
				<path class="st1" d="M1670.29,704.14c0,16.53-8.21,21.21-22.09,21.21c-3.8,0-11.05-1.15-14.41-2.56l1.68-5.48
					c3.09,1.5,9.46,2.56,12.73,2.56c10.42,0,16.35-3.01,16.35-14.94c-2.21,1.77-5.92,3.71-12.28,3.71
					c-13.88,0-20.24-5.48-20.24-23.77c0-18.21,6.45-23.34,20.24-23.34c5.39,0,13.16,1.33,18.02,3.54V704.14z M1638.39,685.06
					c0,14.49,3.44,18.11,13.88,18.11c6.62,0,12.28-2.21,12.28-6.36v-27.93c-3.45-1.24-7.95-1.86-12.28-1.86
					C1641.83,667.02,1638.39,669.85,1638.39,685.06z"/>
			</g>
			<g>
				<path class="st1" d="M1689.49,695.92c0,4.33,0.97,6.36,4.24,9.63l-4.42,3.71c-3.71-3.54-5.57-6.45-5.57-12.99V643.6h5.75V695.92
					z"/>
			</g>
			<g>
				<path class="st1" d="M1702.21,684.88c0-18.21,6.45-23.34,20.24-23.34c13.88,0,20.32,5.13,20.32,23.34
					c0,18.29-6.37,23.77-20.32,23.77C1708.58,708.65,1702.21,703.17,1702.21,684.88z M1708.58,685.06
					c0,14.49,3.44,18.29,13.88,18.29c10.52,0,13.96-3.8,13.96-18.29c0-15.2-3.44-18.21-13.96-18.21
					C1712.02,666.85,1708.58,669.85,1708.58,685.06z"/>
			</g>
			<g>
				<path class="st1" d="M1793.34,685.23c0,18.29-6.45,23.42-20.23,23.42c-5.39,0-13.17-1.33-18.03-3.53V643.6h5.75v21.57
					c2.21-1.77,5.91-3.63,12.28-3.63C1786.98,661.54,1793.34,667.02,1793.34,685.23z M1786.98,685.14
					c0-14.49-3.45-18.12-13.88-18.12c-6.63,0-12.28,2.21-12.28,6.28v28.01c3.44,1.24,7.95,1.86,12.28,1.86
					C1783.53,703.17,1786.98,700.25,1786.98,685.14z"/>
			</g>
			<g>
				<path class="st1" d="M1840.1,705.12c-4.85,2.21-12.37,3.53-18.02,3.53c-12.82,0-18.12-3.45-18.12-15.02
					c0-12.73,7.69-14.76,17.68-14.76c4.68,0,8.13,0.44,12.73,1.42c0-10.96-2.83-13.26-13.17-13.26c-4.24,0-9.27,0.62-12.82,2.12
					l-1.68-5.39c3.44-0.97,8.84-2.21,14.84-2.21c13,0,18.56,3.8,18.56,17.32V705.12z M1834.36,685.14c-3.27-0.8-7.6-1.15-12.02-1.15
					c-8.92,0-11.93,0.97-11.93,9.19c0,8.93,2.56,10.25,11.93,10.25c4.33,0,8.58-0.8,12.02-2.03V685.14z"/>
			</g>
			<g>
				<path class="st1" d="M1859.29,695.92c0,4.33,0.97,6.36,4.24,9.63l-4.42,3.71c-3.71-3.54-5.57-6.45-5.57-12.99V643.6h5.75V695.92
					z"/>
			</g>
		</g>
	</g>
</g>
</svg>
